<?xml version="1.0" encoding="utf-8"?>
<!-- Generator: Adobe Illustrator 22.0.0, SVG Export Plug-In . SVG Version: 6.00 Build 0)  -->
<svg version="1.1" xmlns="http://www.w3.org/2000/svg" xmlns:xlink="http://www.w3.org/1999/xlink" x="0px" y="0px"
	 viewBox="0 0 283.5 283.5" style="enable-background:new 0 0 283.5 283.5;" xml:space="preserve">
<style type="text/css">
	.st0{display:none;}
	.st1{display:inline;fill:#FFFDF3;}
</style>
<g id="Background" class="st0">
	<rect x="0" class="st1" width="283.5" height="283.5"/>
</g>
<g id="Melon">
	<g>
		<g>
			<path d="M78.3,178.7c0.7,0,1.7-0.1,2.8-0.2c0.1,0.5,2.1,5.5,6,15.2c0,0,0.1,0.1,0.1,0.1c0.1,0,0.1,0,0.2-0.1
				c2-4.7,3.6-8.5,4.7-11.5l1.2-3.6c1.3,0.1,2.1,0.1,2.5,0.1c1.3,0,2.4,0,3.4-0.1c0.1,0.2,0.1,0.3,0.1,0.5c0,0.3-0.1,0.4-0.2,0.4
				h-0.1c-0.2,0-0.5,0.1-0.9,0.2c-0.4,0.1-0.6,0.3-0.8,0.4c-0.2,0.2-0.4,0.9-0.4,2c0,0.3,0.1,4.4,0.3,12.3c0,1.2,0.2,2.1,0.5,2.8
				c0.1,0.2,0.4,0.3,0.9,0.5c0.5,0.1,0.9,0.2,1.1,0.2c0.1,0,0.1,0.1,0.1,0.4c0,0.2,0,0.3-0.1,0.5c-2-0.1-3.2-0.2-3.6-0.2
				c-0.1,0-1.3,0.1-3.6,0.2c-0.1-0.1-0.1-0.2-0.1-0.5c0-0.3,0-0.4,0.1-0.4c0.2,0,0.5-0.1,0.9-0.2c0.4-0.1,0.7-0.2,0.9-0.3
				c0.2-0.1,0.4-0.6,0.4-1.3v-1.6l-0.4-10.7c0-0.3-0.1-0.7-0.2-1.1c-0.1-0.4-0.2-0.7-0.3-0.7c0,0-0.1,0.1-0.2,0.2l-6.4,15.2
				c-0.4,0.9-0.8,1.3-1.1,1.3c-0.1,0-0.2,0-0.3-0.1l-7-17.7c0,1.9-0.1,4.2-0.2,6.7c-0.1,2.5-0.2,4.6-0.2,6.2
				c-0.1,1.6-0.1,2.5-0.1,2.5c0,0.4,0.1,0.6,0.2,0.8c0.1,0.2,0.5,0.3,1.1,0.5c0.6,0.2,1,0.2,1.2,0.2c0.1,0,0.1,0.2,0.1,0.5
				c0,0.2,0,0.3-0.1,0.4c-2-0.1-3.2-0.2-3.5-0.2c0,0-1.2,0.1-3.6,0.2c-0.1-0.1-0.2-0.3-0.2-0.5c0-0.3,0.1-0.4,0.2-0.4
				c0.3,0,0.7-0.1,1.3-0.2c0.6-0.1,0.9-0.3,1.1-0.5c0.3-0.4,0.5-1.2,0.5-2.6c0-2.1,0.1-4.2,0.1-6.2c0.1-2,0.1-3.7,0.1-4.8
				c0-1.2,0.1-1.9,0.1-2.2c0-0.5,0-0.9-0.1-1.2c-0.1-0.2-0.4-0.3-1-0.4c-0.6-0.1-1.1-0.2-1.4-0.2c-0.1,0-0.1-0.1-0.1-0.4
				c0-0.2,0-0.4,0.1-0.5c0.3,0,0.7,0,1.1,0.1c0.4,0,0.8,0,1.1,0.1C77.5,178.7,77.9,178.7,78.3,178.7z"/>
			<path d="M108,185.4c0.9,0,1.8,0.2,2.5,0.5c0.7,0.4,1.3,0.8,1.6,1.4c0.4,0.6,0.6,1.1,0.8,1.7c0.2,0.6,0.3,1.2,0.3,1.7
				c0,0.4-0.1,0.7-0.2,0.7c-0.1,0.1-0.4,0.1-0.7,0.1h-7.7c-0.2,0-0.2,0.1-0.2,0.2c0,1.3,0.4,2.5,1.2,3.5c0.8,1.1,1.9,1.6,3.3,1.6
				c0.4,0,0.8,0,1.2-0.1c0.4-0.1,0.7-0.2,1-0.3c0.3-0.1,0.5-0.2,0.7-0.3c0.2-0.1,0.4-0.2,0.5-0.3l0.2-0.2c0.1,0,0.2,0.1,0.2,0.4
				c0,0.2-0.1,0.3-0.2,0.5c-0.4,0.6-1,1.1-1.8,1.5c-0.8,0.5-1.7,0.7-2.6,0.7c-1.7,0-3.1-0.6-4.3-1.9c-1.2-1.3-1.8-2.8-1.8-4.6
				c0-2.1,0.6-3.8,1.7-5C104.9,186.1,106.3,185.4,108,185.4z M107.7,186.6c-1.1,0-1.9,0.5-2.4,1.4c-0.6,0.9-0.8,1.6-0.8,2.2
				c0,0.1,0.1,0.2,0.2,0.2h5.9c0.1,0,0.2-0.1,0.2-0.3c0-0.6-0.3-1.4-0.8-2.2C109.4,187,108.6,186.6,107.7,186.6z"/>
			<path d="M116.6,195.2V182c0-0.7-0.1-1.3-0.2-1.9c-0.1-0.3-0.6-0.5-1.6-0.5h-0.3c-0.1,0-0.2-0.1-0.2-0.3c0-0.3,0.1-0.5,0.2-0.5
				c0.6-0.1,1.2-0.1,1.7-0.2c0.5-0.1,0.9-0.2,1.2-0.3c0.3-0.1,0.5-0.2,0.7-0.3c0.2-0.1,0.4-0.2,0.5-0.2l0.1-0.1h0.1
				c0.1,0,0.2,0.1,0.2,0.2c0.1,0.1,0.1,0.2,0.2,0.3c-0.2,0.6-0.3,1.5-0.3,2.6v13.9c0,1.2,0.1,2.1,0.2,2.7c0,0.1,0.3,0.3,0.8,0.4
				c0.5,0.1,0.8,0.2,1,0.2c0.1,0,0.1,0.1,0.1,0.4c0,0.2,0,0.4,0,0.5c-2-0.1-3.1-0.2-3.3-0.2c-0.1,0-1.2,0.1-3.3,0.2
				c-0.1-0.1-0.1-0.2-0.1-0.5c0-0.3,0-0.4,0.1-0.4c0.2,0,0.6-0.1,1.1-0.2c0.5-0.1,0.7-0.3,0.8-0.4
				C116.5,196.7,116.6,196,116.6,195.2z"/>
			<path d="M129.3,185.4c1.8,0,3.4,0.7,4.7,2c1.3,1.3,1.9,2.9,1.9,4.7c0,1.9-0.6,3.5-1.9,4.8c-1.3,1.3-2.8,2-4.7,2
				c-1.8,0-3.4-0.7-4.7-2c-1.3-1.3-1.9-2.9-1.9-4.8c0-1.9,0.6-3.5,1.9-4.8C125.8,186.1,127.4,185.4,129.3,185.4z M129,186.6
				c-1.1,0-2,0.5-2.6,1.5c-0.7,1-1,2.2-1,3.6c0,1.7,0.4,3.1,1.3,4.3c0.9,1.2,1.9,1.8,3,1.8c1.1,0,2-0.5,2.6-1.5c0.7-1,1-2.2,1-3.6
				c0-1.6-0.4-3-1.3-4.2C131.1,187.2,130.1,186.6,129,186.6z"/>
			<path d="M146.9,185.4c1.4,0,2.4,0.5,3,1.5c0.6,1,0.9,2.7,0.9,4.9v2.8c0,1.2,0.1,2.1,0.2,2.7c0,0.1,0.3,0.3,0.8,0.4
				c0.5,0.1,0.8,0.2,1,0.2c0.1,0,0.1,0.1,0.1,0.4c0,0.2,0,0.4,0,0.5c-2-0.1-3.1-0.2-3.3-0.2c0,0-1.1,0.1-3.2,0.2
				c-0.1-0.1-0.1-0.2-0.1-0.5c0-0.3,0-0.4,0.1-0.4c0.2,0,0.6-0.1,1-0.2c0.4-0.1,0.7-0.3,0.7-0.4c0.1-0.6,0.2-1.3,0.2-2.1v-3
				c0-1.9-0.2-3.2-0.7-3.9c-0.5-0.7-1.3-1-2.4-1c-0.6,0-1.3,0.2-1.9,0.7c-0.6,0.5-0.9,0.9-0.9,1.3v5.3c0,1.2,0.1,2.1,0.2,2.7
				c0,0.1,0.3,0.3,0.8,0.4c0.5,0.1,0.8,0.2,1,0.2c0.1,0,0.1,0.1,0.1,0.4c0,0.2,0,0.4,0,0.5c-2-0.1-3.1-0.2-3.3-0.2
				c-0.1,0-1.2,0.1-3.3,0.2c-0.1-0.1-0.1-0.2-0.1-0.5c0-0.3,0-0.4,0.1-0.4c0.2,0,0.6-0.1,1.1-0.2c0.5-0.1,0.7-0.3,0.8-0.4
				c0.1-0.6,0.2-1.3,0.2-2.1v-5.7c0-0.8-0.1-1.3-0.4-1.6c-0.2-0.2-0.5-0.4-0.7-0.5c-0.3-0.1-0.5-0.1-0.7-0.1s-0.3,0-0.3-0.1
				c0-0.5,0.1-0.7,0.2-0.8c2.1-0.3,3.5-0.6,4.2-0.8c0,0,0.1,0,0.2,0c0.1,0,0.1,0.1,0.2,0.3c0,0.2,0,0.3,0,0.4
				c-0.1,0.6-0.1,1-0.1,1.2c0,0.1,0,0.1,0.1,0.1c0,0,0.1,0,0.1-0.1c0.5-0.5,1.1-0.9,1.9-1.4C145.4,185.6,146.1,185.4,146.9,185.4z"
				/>
			<path d="M158.7,178.7c0.7,0,1.7-0.1,2.8-0.2c0.1,0.5,2.1,5.5,6,15.2c0,0,0.1,0.1,0.1,0.1c0.1,0,0.1,0,0.2-0.1
				c2-4.7,3.6-8.5,4.7-11.5l1.2-3.6c1.3,0.1,2.1,0.1,2.5,0.1c1.3,0,2.4,0,3.4-0.1c0.1,0.2,0.1,0.3,0.1,0.5c0,0.3-0.1,0.4-0.2,0.4
				h-0.1c-0.2,0-0.5,0.1-0.9,0.2s-0.6,0.3-0.8,0.4c-0.2,0.2-0.4,0.9-0.4,2c0,0.3,0.1,4.4,0.3,12.3c0,1.2,0.2,2.1,0.5,2.8
				c0.1,0.2,0.4,0.3,0.9,0.5c0.5,0.1,0.9,0.2,1.1,0.2c0.1,0,0.1,0.1,0.1,0.4c0,0.2,0,0.3-0.1,0.5c-2-0.1-3.2-0.2-3.6-0.2
				c-0.1,0-1.3,0.1-3.6,0.2c-0.1-0.1-0.1-0.2-0.1-0.5c0-0.3,0-0.4,0.1-0.4c0.2,0,0.5-0.1,0.9-0.2c0.4-0.1,0.7-0.2,0.9-0.3
				c0.2-0.1,0.4-0.6,0.4-1.3v-1.6l-0.4-10.7c0-0.3-0.1-0.7-0.2-1.1c-0.1-0.4-0.2-0.7-0.3-0.7c0,0-0.1,0.1-0.2,0.2l-6.4,15.2
				c-0.4,0.9-0.8,1.3-1.1,1.3c-0.1,0-0.2,0-0.3-0.1l-7-17.7c0,1.9-0.1,4.2-0.2,6.7c-0.1,2.5-0.2,4.6-0.2,6.2
				c-0.1,1.6-0.1,2.5-0.1,2.5c0,0.4,0.1,0.6,0.2,0.8c0.1,0.2,0.5,0.3,1.1,0.5c0.6,0.2,1,0.2,1.2,0.2c0.1,0,0.1,0.2,0.1,0.5
				c0,0.2,0,0.3-0.1,0.4c-2-0.1-3.2-0.2-3.5-0.2c0,0-1.2,0.1-3.6,0.2c-0.1-0.1-0.2-0.3-0.2-0.5c0-0.3,0.1-0.4,0.2-0.4
				c0.3,0,0.7-0.1,1.3-0.2c0.6-0.1,0.9-0.3,1.1-0.5c0.3-0.4,0.5-1.2,0.5-2.6c0-2.1,0.1-4.2,0.1-6.2c0.1-2,0.1-3.7,0.1-4.8
				c0-1.2,0.1-1.9,0.1-2.2c0-0.5,0-0.9-0.1-1.2c-0.1-0.2-0.4-0.3-1-0.4c-0.6-0.1-1.1-0.2-1.4-0.2c-0.1,0-0.1-0.1-0.1-0.4
				c0-0.2,0-0.4,0.1-0.5c0.3,0,0.7,0,1.1,0.1c0.4,0,0.8,0,1.1,0.1C157.9,178.7,158.2,178.7,158.7,178.7z"/>
			<path d="M188.3,185.4c1.1,0,1.9,0.3,2.4,0.8c0.5,0.5,0.7,1.4,0.7,2.6v7c0,0.4,0.1,0.8,0.3,1.1c0.2,0.3,0.5,0.4,0.9,0.4
				c0.3,0,0.6-0.1,1.1-0.4c0.1,0,0.1,0.1,0.1,0.2c0,0.3-0.1,0.5-0.2,0.6c-0.8,0.7-1.5,1.1-2.1,1.1c-0.5,0-0.9-0.2-1.3-0.6
				c-0.4-0.4-0.7-0.8-0.9-1.2c0,0-0.1,0.1-0.2,0.2c-0.1,0.1-0.3,0.3-0.5,0.5c-0.2,0.2-0.5,0.3-0.8,0.5c-0.3,0.2-0.6,0.3-1,0.5
				c-0.4,0.1-0.8,0.2-1.2,0.2c-0.9,0-1.7-0.2-2.3-0.7c-0.6-0.5-0.9-1.2-0.9-2.2c0-0.4,0.1-0.9,0.3-1.3c0.2-0.4,0.5-0.7,0.8-1
				c0.3-0.3,0.7-0.5,1.2-0.8c0.5-0.3,1-0.5,1.4-0.6c0.4-0.1,0.9-0.3,1.5-0.5c0.6-0.2,1-0.4,1.3-0.5c0.2-0.1,0.3-0.2,0.3-0.5v-2.3
				c0-0.6-0.2-1.1-0.6-1.5c-0.4-0.4-0.9-0.5-1.5-0.5c-0.6,0-1.1,0.2-1.5,0.6c-0.4,0.4-0.6,1-0.6,1.6c0,0.7-0.4,1.1-1.2,1.1
				c-0.6,0-1-0.2-1.2-0.6c0-0.9,0.6-1.7,1.9-2.6C185.7,185.9,187,185.4,188.3,185.4z M185.5,196.7c0.3,0.3,0.8,0.4,1.3,0.4
				s1.1-0.2,1.6-0.5c0.5-0.3,0.8-0.7,0.8-1v-3.1c-0.2,0.1-0.6,0.2-1.2,0.4c-0.6,0.2-1.1,0.4-1.5,0.5c-0.4,0.2-0.7,0.4-1,0.8
				c-0.3,0.4-0.5,0.8-0.5,1.2C185,196,185.1,196.4,185.5,196.7z"/>
			<path d="M199.6,194.6c0,1.2,0.1,2.1,0.2,2.7c0,0.1,0.3,0.3,0.8,0.4c0.5,0.1,0.8,0.2,1,0.2c0.1,0,0.1,0.1,0.1,0.4
				c0,0.2,0,0.4,0,0.5c-2-0.1-3.1-0.2-3.3-0.2c-0.1,0-1.2,0.1-3.3,0.2c-0.1-0.1-0.1-0.2-0.1-0.5c0-0.3,0-0.4,0.1-0.4
				c0.2,0,0.6-0.1,1.1-0.2c0.5-0.1,0.7-0.3,0.8-0.4c0.1-0.6,0.2-1.3,0.2-2.1v-5.7c0-0.8-0.1-1.3-0.4-1.6c-0.2-0.2-0.5-0.4-0.7-0.5
				c-0.3-0.1-0.5-0.1-0.7-0.1s-0.3,0-0.3-0.1c0-0.5,0.1-0.7,0.2-0.8c2.1-0.3,3.5-0.6,4.2-0.8l0.1,0c0,0,0.1,0,0.1,0
				c0.1,0,0.1,0.1,0.2,0.3c0,0.2,0,0.3,0,0.4c-0.1,0.8-0.2,1.5-0.2,2.2V194.6z M197.1,181.7c-0.3-0.3-0.4-0.7-0.4-1.1
				c0-0.4,0.1-0.8,0.4-1.1c0.3-0.3,0.7-0.4,1.1-0.4c0.4,0,0.8,0.1,1.1,0.4c0.3,0.3,0.4,0.7,0.4,1.1c0,0.4-0.1,0.8-0.4,1.1
				c-0.3,0.3-0.7,0.4-1.1,0.4C197.8,182.2,197.4,182,197.1,181.7z"/>
			<path d="M204.9,195.2V182c0-0.7-0.1-1.3-0.2-1.9c-0.1-0.3-0.6-0.5-1.5-0.5h-0.3c-0.1,0-0.2-0.1-0.2-0.3c0-0.3,0.1-0.5,0.2-0.5
				c0.6-0.1,1.2-0.1,1.7-0.2c0.5-0.1,0.9-0.2,1.2-0.3c0.3-0.1,0.5-0.2,0.7-0.3c0.2-0.1,0.4-0.2,0.5-0.2l0.1-0.1h0.1
				c0.1,0,0.2,0.1,0.2,0.2c0.1,0.1,0.1,0.2,0.2,0.3c-0.2,0.6-0.3,1.5-0.3,2.6v13.9c0,1.2,0.1,2.1,0.2,2.7c0,0.1,0.3,0.3,0.8,0.4
				c0.5,0.1,0.8,0.2,1,0.2c0.1,0,0.1,0.1,0.1,0.4c0,0.2,0,0.4,0,0.5c-2-0.1-3.1-0.2-3.3-0.2c-0.1,0-1.2,0.1-3.3,0.2
				c-0.1-0.1-0.1-0.2-0.1-0.5c0-0.3,0-0.4,0.1-0.4c0.2,0,0.6-0.1,1.1-0.2c0.5-0.1,0.7-0.3,0.8-0.4
				C204.8,196.7,204.9,196,204.9,195.2z"/>
		</g>
		<g>
			<g>
				<g>
					<path d="M141.7,162.4c-21.5,0-38.9-17.5-38.9-38.9c0-21.5,17.5-38.9,38.9-38.9c21.5,0,38.9,17.5,38.9,38.9
						C180.6,144.9,163.2,162.4,141.7,162.4z M141.7,86.1c-20.6,0-37.3,16.7-37.3,37.3c0,20.6,16.7,37.3,37.3,37.3
						c20.6,0,37.3-16.7,37.3-37.3C179.1,102.9,162.3,86.1,141.7,86.1z"/>
				</g>
			</g>
			<polygon points="126.2,113.3 150.2,113.3 137.9,121.4 			"/>
			<path d="M141.7,88.7c-19.2,0-34.8,15.6-34.8,34.8c0,19.2,15.6,34.8,34.8,34.8c19.2,0,34.8-15.6,34.8-34.8
				C176.6,104.2,161,88.7,141.7,88.7z M159.1,134.8h-34.8v-19.2l7.1,5l10.2,7.2l10.2-7.2l7.1-5V134.8z M159.1,113.3l-17.4,12.1
				l-17.4-12.1v-1.1h34.8V113.3z"/>
			<polygon points="125.5,117.7 130.9,121.5 134.2,123.8 125.5,129.6 			"/>
		</g>
	</g>
</g>
</svg>
