<?xml version="1.0" encoding="utf-8"?>
<!-- Generator: Adobe Illustrator 22.0.0, SVG Export Plug-In . SVG Version: 6.00 Build 0)  -->
<svg version="1.1" id="Layer_1" xmlns="http://www.w3.org/2000/svg" xmlns:xlink="http://www.w3.org/1999/xlink" x="0px" y="0px"
	 viewBox="0 0 768 768" style="enable-background:new 0 0 768 768;" xml:space="preserve">
<style type="text/css">
	.st0{fill:#E6E6E6;}
	.st1{fill:#252525;}
</style>
<rect x="0" y="0" class="st0" width="768" height="768"/>
<g>
	<path class="st1" d="M307.7,360.6l-16,30.1l-7.3-30.1h-4.3h-3.5h-15.1c-2.6,0-4.6,2.1-4.6,4.7s2.1,4.7,4.6,4.7h12l-11.9,36.5h7.8
		l10.9-33.6h0.1l7.9,33.6h2.1l17.8-33.1h0.1l0.6,33.1h7.6l-1-45.9H307.7z"/>
	<path class="st1" d="M345.3,377c-1.8-1.1-3.8-1.6-6.1-1.6c-2.8,0-5.4,0.8-7.7,2.3c-2.4,1.5-4.2,3.6-5.6,6.3c-1.4,2.7-2,5.6-2,8.7
		c0,2.9,0.6,5.5,1.7,7.8c1.1,2.3,2.7,4,4.8,5.2c2.1,1.2,4.5,1.8,7.2,1.8c3.4,0,6.8-1,10.3-2.9l1.2-6.4c-2.2,1.2-4.1,2.1-5.8,2.7
		c-1.7,0.6-3.3,0.9-4.7,0.9c-1.4,0-2.7-0.3-3.9-1c-1.2-0.6-2.1-1.6-2.7-2.8c-0.6-1.2-1-2.6-1-4.3c0-0.6,0.1-1.3,0.2-2.1h19.3
		c0.2-1.2,0.3-2.4,0.3-3.5c0-2.5-0.5-4.7-1.5-6.6C348.5,379.6,347.1,378.1,345.3,377z M343.9,387.1h-11.8c1.4-4.2,3.6-6.2,6.8-6.2
		c1.6,0,2.8,0.5,3.7,1.5c0.9,1,1.3,2.4,1.3,4.2V387.1z"/>
	<polygon class="st1" points="355.3,406.5 362.6,406.5 369,360.6 361.8,360.6 	"/>
	<path class="st1" d="M393.5,377.1c-2-1.1-4.2-1.7-6.7-1.7c-2.8,0-5.5,0.8-7.9,2.3c-2.5,1.6-4.4,3.7-5.8,6.5
		c-1.4,2.8-2.1,5.8-2.1,9.1c0,2.7,0.5,5.1,1.6,7.3c1.1,2.2,2.6,3.8,4.7,5c2,1.2,4.3,1.8,6.9,1.8c2.9,0,5.5-0.8,8-2.4
		c2.4-1.6,4.3-3.8,5.7-6.6c1.4-2.8,2-5.9,2-9.2c0-2.7-0.5-5.1-1.6-7.2C397,379.9,395.5,378.2,393.5,377.1z M391.2,395.1
		c-0.7,1.9-1.7,3.4-3,4.5c-1.3,1.1-2.7,1.6-4.3,1.6c-1,0-2-0.3-2.8-0.9c-0.9-0.6-1.5-1.5-2.1-2.7c-0.5-1.1-0.8-2.4-0.8-3.9
		c0-2.1,0.4-4.1,1.1-6.1c0.7-2,1.7-3.6,3-4.7c1.2-1.1,2.7-1.7,4.2-1.7c1.8,0,3.1,0.7,4.2,2.1c1,1.4,1.5,3.2,1.5,5.5
		C392.3,391.1,391.9,393.2,391.2,395.1z"/>
	<path class="st1" d="M429.3,376.8c-1.2-0.7-2.6-1.1-4.3-1.1c-1.8,0-3.5,0.5-5.2,1.4c-1.7,0.9-3.4,2.2-5.2,4l0.7-4.9h-7.2l-4.2,30.3
		h7.2l2.7-19.4c1.8-2,3.4-3.5,4.9-4.4c1.5-0.9,2.7-1.4,3.6-1.4c0.9,0,1.7,0.4,2.2,1.1c0.6,0.7,0.8,1.6,0.8,2.8c0,0.7,0,1.3-0.1,1.8
		c-0.1,0.5-0.2,1.4-0.3,2.7l-2.3,16.9h7.2l2.5-16.8c0.1-0.7,0.2-1.4,0.2-1.9c0.1-0.5,0.1-1,0.1-1.3c0-0.4,0.1-0.8,0.1-1.1
		c0-0.4,0-0.7,0-1.1c0-1.7-0.3-3.1-0.9-4.4C431.4,378.5,430.5,377.5,429.3,376.8z"/>
	<polygon class="st1" points="482.5,360.6 466.5,390.7 459.2,360.6 451.5,360.6 436.5,406.5 444.2,406.5 455.1,372.9 455.3,372.9 
		463.2,406.5 465.3,406.5 483.1,373.4 483.2,373.4 483.8,406.5 491.5,406.5 490.5,360.6 	"/>
	<path class="st1" d="M508.8,377.7c-3.2,1.5-5.7,3.8-7.5,6.7c-1.8,3-2.7,6.4-2.7,10.2c0,2.3,0.4,4.4,1.3,6.3
		c0.9,1.9,2.1,3.4,3.7,4.5c1.6,1.1,3.3,1.6,5.2,1.6c2.8,0,5.6-1.3,8.3-3.8l0.1,0l0,0l-0.5,3.2h7.3l4.2-30.1c-2.8-0.7-5.7-1-8.5-1
		C515.7,375.4,512,376.2,508.8,377.7z M518.2,397.7c-1.1,1.1-2.3,2-3.5,2.7c-1.2,0.7-2.4,1-3.4,1c-1.6,0-2.9-0.7-3.8-2
		c-1-1.3-1.4-3.1-1.4-5.2c0-1.8,0.3-3.6,1-5.3c0.7-1.7,1.5-3.1,2.6-4.2c1.1-1.1,2.4-1.9,3.9-2.5c1.5-0.5,3.1-0.8,5-0.8
		c0.6,0,1.2,0,1.9,0.1L518.2,397.7z"/>
	<path class="st1" d="M543.8,363.8c-0.6-0.4-1.3-0.5-2-0.5c-0.7,0-1.4,0.2-2,0.5c-0.6,0.4-1.1,0.8-1.4,1.5c-0.3,0.6-0.5,1.3-0.5,2
		c0,0.7,0.2,1.3,0.5,1.9c0.3,0.6,0.8,1.1,1.4,1.4c0.6,0.4,1.3,0.5,2,0.5s1.4-0.2,2-0.5c0.6-0.4,1.1-0.8,1.5-1.4
		c0.3-0.6,0.5-1.2,0.5-1.9c0-0.7-0.2-1.4-0.5-2C544.9,364.6,544.4,364.1,543.8,363.8z"/>
	<polygon class="st1" points="532.9,406.5 540.1,406.5 544.4,376.2 537.1,376.2 	"/>
	<polygon class="st1" points="554.7,360.6 548.3,406.5 555.6,406.5 562,360.6 	"/>
	<path class="st1" d="M257,379.4h-30.2c-2.6,0-4.6,2.1-4.6,4.7c0,2.6,2.1,4.7,4.6,4.7H257c2.6,0,4.6-2.1,4.6-4.7
		C261.7,381.5,259.6,379.4,257,379.4z"/>
	<path class="st1" d="M250.1,365.3c0-2.6-2.1-4.7-4.6-4.7h-34.8c-2.6,0-4.6,2.1-4.6,4.7s2.1,4.7,4.6,4.7h34.8
		C248,370,250.1,367.9,250.1,365.3z"/>
</g>
</svg>
