<?xml version="1.0" encoding="utf-8"?>
<!-- Generator: Adobe Illustrator 22.0.0, SVG Export Plug-In . SVG Version: 6.00 Build 0)  -->
<svg version="1.1" xmlns="http://www.w3.org/2000/svg" xmlns:xlink="http://www.w3.org/1999/xlink" x="0px" y="0px"
	 viewBox="0 0 283.5 283.5" style="enable-background:new 0 0 283.5 283.5;" xml:space="preserve">
<style type="text/css">
	.st0{fill:#FFFDF3;}
</style>
<g id="Background">
	<rect x="0" class="st0" width="283.5" height="283.5"/>
</g>
<g id="Melon">
	<g>
		<g>
			<g>
				<g>
					<path d="M141.7,156c-21.5,0-38.9-17.5-38.9-38.9c0-21.5,17.5-38.9,38.9-38.9c21.5,0,38.9,17.5,38.9,38.9
						C180.7,138.5,163.2,156,141.7,156z M141.7,79.7c-20.6,0-37.3,16.8-37.3,37.3c0,20.6,16.8,37.3,37.3,37.3
						c20.6,0,37.3-16.8,37.3-37.3C179.1,96.5,162.3,79.7,141.7,79.7z"/>
				</g>
			</g>
			<path d="M141.7,82.2c-19.2,0-34.8,15.6-34.8,34.8c0,19.2,15.6,34.8,34.8,34.8c19.2,0,34.8-15.6,34.8-34.8
				C176.6,97.8,161,82.2,141.7,82.2z M151.3,119.9l-5.7-1.5l-14.3,14.3c-1.5,1.5-3.9,1.5-5.3,0c-1.5-1.5-1.5-3.9,0-5.3l14.4-14.4
				l-1.4-5.4l7.3-7.3l4.3,1.1c0.3,0.1,0.5,0.2,0.7,0.4c0.6,0.6,0.6,1.5,0,2.1l-4.4,4.4l0.8,3l3,0.8l4.4-4.4c0.6-0.6,1.5-0.6,2.1,0
				c0.2,0.2,0.3,0.4,0.4,0.7l1.1,4.3L151.3,119.9z"/>
			<path d="M126.8,131.9c-1-1-1-2.7,0-3.8l6.8-6.8c2.7-2.7,5.4-5.4,8.1-8.1l-1.4-5.4l6.4-6.4l3.7,1c0.3,0.1,0.4,0.4,0.2,0.7
				l-4.8,4.8l1.1,4L126.8,131.9z"/>
			<polygon points="151,118.7 147.2,117.7 144.9,115.4 145.1,115.2 150.7,116.8 156.9,110.7 157.3,112.3 			"/>
		</g>
		<g>
			<path d="M82.4,171.7c0.9,0,2.1-0.1,3.5-0.2c0.2,0.6,2.7,6.9,7.5,19.1c0,0.1,0.1,0.1,0.2,0.1c0.1,0,0.2-0.1,0.2-0.2
				c2.5-5.8,4.5-10.7,5.9-14.4l1.5-4.6c1.6,0.1,2.7,0.2,3.2,0.2c1.6,0,3,0,4.3-0.2c0.1,0.2,0.1,0.4,0.1,0.6c0,0.4-0.1,0.5-0.2,0.5
				h-0.1c-0.3,0-0.6,0.1-1.1,0.2c-0.5,0.2-0.8,0.3-1,0.5c-0.3,0.2-0.5,1.1-0.5,2.6c0,0.4,0.1,5.6,0.3,15.5c0,1.4,0.2,2.6,0.6,3.5
				c0.1,0.2,0.5,0.4,1.1,0.6c0.7,0.2,1.1,0.2,1.4,0.2c0.1,0,0.2,0.2,0.2,0.5c0,0.2,0,0.4-0.1,0.6c-2.5-0.1-4.1-0.2-4.5-0.2
				c-0.1,0-1.7,0.1-4.6,0.2c-0.1-0.1-0.2-0.3-0.2-0.6c0-0.3,0.1-0.5,0.2-0.5c0.3,0,0.6-0.1,1.2-0.2c0.5-0.1,0.9-0.3,1.1-0.4
				c0.3-0.2,0.5-0.7,0.5-1.6v-2l-0.5-13.4c0-0.4-0.1-0.9-0.2-1.4c-0.1-0.5-0.2-0.8-0.4-0.8c-0.1,0-0.1,0.1-0.2,0.3l-8,19.1
				c-0.5,1.1-1,1.6-1.4,1.6c-0.1,0-0.2,0-0.3-0.1l-8.7-22.2c-0.1,2.4-0.1,5.2-0.2,8.4c-0.1,3.1-0.2,5.7-0.3,7.8s-0.1,3.1-0.1,3.1
				c0,0.5,0.1,0.8,0.2,1c0.2,0.2,0.6,0.4,1.4,0.6c0.8,0.2,1.3,0.3,1.5,0.3c0.1,0,0.2,0.2,0.2,0.6c0,0.2,0,0.4-0.1,0.5
				c-2.5-0.1-4-0.2-4.4-0.2c-0.1,0-1.5,0.1-4.5,0.2c-0.1-0.1-0.2-0.3-0.2-0.6c0-0.4,0.1-0.5,0.2-0.5c0.4,0,0.9-0.1,1.6-0.2
				c0.7-0.2,1.2-0.4,1.4-0.6c0.4-0.5,0.6-1.6,0.7-3.3c0.1-2.6,0.1-5.2,0.2-7.8c0.1-2.6,0.1-4.6,0.2-6c0.1-1.5,0.1-2.4,0.1-2.8
				c0-0.6-0.1-1.1-0.2-1.5c-0.1-0.2-0.5-0.4-1.3-0.6c-0.8-0.2-1.4-0.2-1.7-0.2c-0.1,0-0.2-0.2-0.2-0.5c0-0.3,0.1-0.5,0.2-0.6
				c0.4,0,0.9,0.1,1.4,0.1c0.5,0,1,0.1,1.4,0.1C81.4,171.6,81.9,171.7,82.4,171.7z"/>
			<path d="M119.7,180.1c1.2,0,2.2,0.2,3.1,0.7c0.9,0.4,1.6,1,2,1.7c0.5,0.7,0.8,1.4,1,2.1c0.2,0.7,0.3,1.4,0.3,2.2
				c0,0.5-0.1,0.8-0.2,0.9s-0.4,0.2-0.9,0.2h-9.6c-0.2,0-0.3,0.1-0.3,0.2c0,1.6,0.5,3.1,1.4,4.4c1,1.3,2.4,2,4.2,2
				c0.5,0,1-0.1,1.5-0.2c0.5-0.1,0.9-0.2,1.2-0.4c0.3-0.1,0.6-0.3,0.9-0.4c0.2-0.1,0.5-0.3,0.6-0.4l0.3-0.2c0.2,0,0.2,0.2,0.2,0.5
				c0,0.2-0.1,0.4-0.2,0.7c-0.5,0.7-1.3,1.4-2.2,1.9c-1,0.6-2.1,0.9-3.2,0.9c-2.1,0-3.9-0.8-5.4-2.4c-1.5-1.6-2.3-3.5-2.3-5.8
				c0-2.7,0.7-4.8,2.2-6.3C115.7,180.8,117.5,180.1,119.7,180.1z M119.3,181.5c-1.3,0-2.3,0.6-3,1.7c-0.7,1.1-1,2.1-1,2.8
				c0,0.2,0.1,0.3,0.2,0.3h7.4c0.1,0,0.2-0.1,0.2-0.4c0-0.8-0.3-1.7-1-2.8C121.4,182,120.4,181.5,119.3,181.5z"/>
			<path d="M130.4,192.3v-16.5c0-0.9-0.1-1.7-0.2-2.4c-0.1-0.4-0.8-0.6-1.9-0.6h-0.3c-0.2,0-0.2-0.1-0.2-0.4c0-0.4,0.1-0.6,0.2-0.6
				c0.8-0.1,1.5-0.2,2.1-0.3c0.6-0.1,1.2-0.3,1.5-0.4c0.4-0.1,0.7-0.2,0.9-0.4c0.3-0.1,0.4-0.2,0.6-0.3l0.2-0.1h0.1
				c0.1,0,0.2,0.1,0.3,0.2c0.1,0.1,0.2,0.3,0.2,0.4c-0.3,0.8-0.4,1.9-0.4,3.3v17.4c0,1.5,0.1,2.6,0.3,3.4c0.1,0.2,0.4,0.3,1,0.5
				c0.6,0.2,1,0.2,1.3,0.2c0.1,0,0.1,0.2,0.2,0.5s0,0.5,0,0.6c-2.5-0.1-3.9-0.2-4.1-0.2c-0.2,0-1.5,0.1-4.2,0.2
				c-0.1-0.1-0.2-0.3-0.2-0.6c0-0.3,0.1-0.5,0.2-0.5c0.3,0,0.8-0.1,1.4-0.2c0.6-0.2,0.9-0.3,1-0.5
				C130.3,194.2,130.4,193.3,130.4,192.3z"/>
			<path d="M146.4,180c2.3,0,4.2,0.8,5.9,2.5c1.6,1.7,2.4,3.6,2.4,5.9c0,2.3-0.8,4.3-2.4,6c-1.6,1.7-3.5,2.5-5.8,2.5
				c-2.3,0-4.3-0.8-5.9-2.5c-1.6-1.7-2.4-3.7-2.4-6c0-2.4,0.8-4.4,2.4-6C142,180.8,144,180,146.4,180z M145.9,181.5
				c-1.3,0-2.4,0.6-3.3,1.8c-0.9,1.2-1.3,2.7-1.3,4.5c0,2.1,0.5,3.9,1.6,5.4c1.1,1.5,2.3,2.2,3.8,2.2c1.3,0,2.5-0.6,3.3-1.9
				s1.3-2.8,1.3-4.6c0-2.1-0.5-3.8-1.6-5.3C148.7,182.3,147.4,181.5,145.9,181.5z"/>
			<path d="M168.4,180c1.8,0,3,0.6,3.7,1.9c0.7,1.3,1.1,3.3,1.1,6.2v3.5c0,1.5,0.1,2.6,0.3,3.4c0.1,0.2,0.4,0.3,1,0.5
				c0.6,0.2,1,0.2,1.3,0.2c0.1,0,0.1,0.2,0.2,0.5s0,0.5,0,0.6c-2.5-0.1-3.9-0.2-4.1-0.2c-0.1,0-1.4,0.1-4,0.2
				c-0.1-0.1-0.2-0.3-0.2-0.6c0-0.3,0.1-0.5,0.2-0.5c0.3,0,0.7-0.1,1.3-0.2c0.5-0.2,0.8-0.3,0.9-0.5c0.2-0.7,0.3-1.6,0.3-2.7v-3.8
				c0-2.4-0.3-4-0.9-4.8c-0.6-0.9-1.6-1.3-3-1.3c-0.8,0-1.6,0.3-2.3,0.9c-0.7,0.6-1.1,1.1-1.1,1.6v6.7c0,1.5,0.1,2.6,0.3,3.4
				c0.1,0.2,0.4,0.3,1,0.5c0.6,0.2,1,0.2,1.3,0.2c0.1,0,0.1,0.2,0.2,0.5s0,0.5,0,0.6c-2.5-0.1-3.9-0.2-4.1-0.2
				c-0.2,0-1.5,0.1-4.2,0.2c-0.1-0.1-0.2-0.3-0.2-0.6c0-0.3,0-0.5,0.2-0.5c0.3,0,0.8-0.1,1.4-0.2c0.6-0.2,0.9-0.3,1-0.5
				c0.2-0.7,0.3-1.6,0.3-2.7v-7.2c0-1-0.2-1.7-0.5-2.1c-0.3-0.3-0.6-0.5-0.9-0.6c-0.4-0.1-0.7-0.2-0.9-0.2s-0.4,0-0.4-0.1
				c0-0.6,0.1-0.9,0.2-1c2.7-0.4,4.4-0.7,5.3-1c0,0,0.1,0,0.2,0c0.1,0,0.2,0.1,0.2,0.3s0,0.4,0,0.5c-0.1,0.7-0.2,1.2-0.2,1.5
				c0,0.1,0,0.2,0.1,0.2c0,0,0.1,0,0.1-0.1c0.6-0.6,1.4-1.2,2.4-1.7C166.5,180.3,167.5,180,168.4,180z"/>
			<path d="M183.6,171.7c0.5,0,1,0,1.5,0c0.5,0,1-0.1,1.6-0.1c0.6,0,1-0.1,1.4-0.1c0.1,0.2,0.1,0.3,0.1,0.6c0,0.4-0.1,0.5-0.2,0.5
				c-0.3,0-0.7,0.1-1.4,0.3c-0.7,0.2-1,0.4-1.1,0.5c-0.2,0.9-0.3,2.1-0.3,3.5v16.5c0,3.2-0.9,6-2.7,8.3s-4.1,3.5-6.8,3.5
				c-0.3,0-0.6-0.1-0.9-0.2s-0.6-0.2-0.8-0.3l-0.3-0.2c-0.3-0.4-0.5-0.8-0.5-1.4c0-0.6,0.2-1,0.7-1.4c0.5-0.4,1-0.5,1.7-0.5
				c0.5,0,1,0.3,1.5,0.8c0.6,0.5,1,0.8,1.4,0.8c0.4,0,0.7-0.2,1.1-0.5c0.4-0.4,0.7-0.9,1.1-1.6c0.4-0.7,0.6-1.7,0.9-2.9
				c0.2-1.3,0.3-2.7,0.3-4.3v-17c0-1.6-0.1-2.7-0.3-3.4c-0.1-0.2-0.4-0.4-1.1-0.6c-0.6-0.2-1.1-0.2-1.5-0.2c-0.1,0-0.2-0.2-0.2-0.5
				c0-0.3,0.1-0.5,0.2-0.6c0.3,0,1,0.1,2,0.1C182,171.7,182.9,171.7,183.6,171.7z"/>
			<path d="M191.4,178c0-2,0.7-3.6,2.2-4.8c1.5-1.3,3.2-1.9,5.2-1.9c0.6,0,1.1,0,1.6,0.1s0.9,0.1,1.2,0.2s0.8,0.2,1.4,0.4
				c0.6,0.2,1.1,0.3,1.6,0.4c0.3,1.3,0.5,3.2,0.5,5.4c0,0.2-0.1,0.3-0.4,0.3c-0.6,0-0.9-0.1-1-0.4c-0.1-1.1-0.7-2.2-1.6-3.3
				c-1-1.1-2.1-1.6-3.5-1.6c-1.5,0-2.6,0.4-3.2,1.1c-0.6,0.8-0.9,1.7-0.9,2.8c0,0.5,0.1,0.9,0.3,1.4c0.2,0.4,0.4,0.8,0.5,1.1
				c0.2,0.3,0.5,0.6,1,1c0.5,0.4,0.8,0.6,1,0.8s0.6,0.4,1.3,0.8c0.6,0.4,1.1,0.7,1.2,0.8c0.1,0.1,0.6,0.3,1.3,0.8
				c0.8,0.5,1.3,0.8,1.6,1s0.7,0.5,1.3,1c0.6,0.5,1,0.9,1.3,1.3c0.3,0.4,0.5,0.9,0.8,1.4c0.2,0.6,0.4,1.2,0.4,1.8c0,2-0.8,3.7-2.4,5
				s-3.4,2-5.6,2c-0.6,0-1.3,0-1.9-0.1c-0.7-0.1-1.3-0.2-1.7-0.3c-0.5-0.1-1-0.2-1.7-0.4c-0.7-0.2-1.2-0.3-1.5-0.3
				c-0.6-3.1-1-5.1-1-6.1c0-0.2,0.2-0.2,0.6-0.2c0.5,0,0.8,0.1,1,0.3c0.9,3.7,3,5.5,6.3,5.5c1.3,0,2.3-0.4,3.2-1.1
				c0.9-0.8,1.3-1.8,1.3-3.2c0-0.5-0.1-1-0.2-1.4s-0.3-0.8-0.5-1.1c-0.2-0.3-0.5-0.6-0.9-0.9c-0.4-0.3-0.7-0.6-1-0.7
				c-0.2-0.2-0.6-0.4-1.3-0.7c-0.6-0.3-1-0.6-1.3-0.7c-0.7-0.4-1.3-0.7-1.5-0.9c-0.3-0.2-0.8-0.5-1.4-0.9s-1.2-0.8-1.5-1.2
				s-0.7-0.8-1.1-1.3c-0.4-0.5-0.7-1-0.9-1.6C191.5,179.2,191.4,178.6,191.4,178z"/>
		</g>
	</g>
</g>
</svg>
