<?xml version="1.0" encoding="utf-8"?>
<!-- Generator: Adobe Illustrator 22.0.0, SVG Export Plug-In . SVG Version: 6.00 Build 0)  -->
<svg version="1.1" xmlns="http://www.w3.org/2000/svg" xmlns:xlink="http://www.w3.org/1999/xlink" x="0px" y="0px"
	 viewBox="0 0 283.5 283.5" style="enable-background:new 0 0 283.5 283.5;" xml:space="preserve">
<style type="text/css">
	.st0{display:none;}
	.st1{display:inline;fill:#FFFDF3;}
</style>
<g id="Background" class="st0">
	<rect x="0" class="st1" width="283.5" height="283.5"/>
</g>
<g id="Melon">
	<g>
		<g>
			<path d="M89.2,192.9c-2.5-2.6-3.7-5.8-3.7-9.5c0-3.7,1.2-6.9,3.7-9.5c2.5-2.6,5.5-4,9-4c3.5,0,6.5,1.3,9,4
				c2.5,2.6,3.7,5.8,3.7,9.5c0,3.7-1.2,6.9-3.7,9.5c-2.5,2.6-5.5,3.9-9,3.9C94.7,196.8,91.7,195.5,89.2,192.9z M97.6,171.6
				c-2.5,0-4.5,1.1-6,3.3c-1.5,2.2-2.2,4.7-2.2,7.6c0,2.1,0.3,4.1,1,6c0.7,1.9,1.8,3.5,3.2,4.7c1.5,1.3,3.2,1.9,5.1,1.9
				c1.7,0,3.2-0.5,4.4-1.6c1.3-1.1,2.2-2.5,2.8-4.1c0.6-1.6,0.9-3.4,0.9-5.2c0-2.1-0.3-4.1-1-6c-0.7-1.9-1.8-3.4-3.2-4.7
				C101.3,172.2,99.6,171.6,97.6,171.6z"/>
			<path d="M117.2,179.4c0.4,0,0.9,0,1.3,0c0.4,0,0.8-0.1,1.3-0.1c0.5,0,0.9-0.1,1.3-0.1c0.1,0.2,0.1,0.4,0.1,0.6
				c0,0.4-0.1,0.6-0.2,0.6c-0.2,0-0.6,0.1-1.1,0.3c-0.5,0.2-0.8,0.4-0.8,0.6v0.1c0,0.5,1.4,3.9,4.3,10.4l3-8.7
				c0.2-0.6,0.3-1,0.3-1.2c0-0.4-0.2-0.7-0.6-1c-0.4-0.3-1-0.4-1.6-0.4c-0.1,0-0.2-0.2-0.2-0.5c0-0.3,0.1-0.5,0.2-0.6
				c0.3,0,0.9,0.1,1.5,0.1c0.7,0.1,1.4,0.1,2,0.1c0.6,0,1.2,0,1.9-0.1c0.7-0.1,1.2-0.1,1.5-0.1c0.1,0.2,0.1,0.4,0.1,0.6
				c0,0.4-0.1,0.6-0.2,0.6c-0.3,0-0.8,0.1-1.4,0.4c-0.6,0.2-1,0.6-1.2,1.2l-7.1,19.2c-0.6,1.6-1.3,2.8-2.1,3.4c-0.8,0.6-1.5,1-2.1,1
				c-0.6,0-1-0.2-1.2-0.5c-0.3-0.3-0.4-0.7-0.4-1c0-0.6,0.2-1,0.6-1.3c2.2,0,3.7-1.1,4.4-3.4c0.1-0.4,0.3-0.9,0.5-1.4
				c0.2-0.6,0.3-1,0.4-1.4l-5.7-13.9c-0.3-0.6-0.6-1.1-0.8-1.4c-0.2-0.2-0.6-0.4-1.1-0.6c-0.5-0.2-0.9-0.2-1.2-0.2
				c-0.1,0-0.2-0.2-0.2-0.5c0-0.3,0.1-0.5,0.2-0.6C115.7,179.3,117.1,179.4,117.2,179.4z"/>
			<path d="M140.1,179.1c1.2,0,2.3,0.2,3.2,0.7c0.9,0.5,1.6,1.1,2.1,1.8s0.8,1.5,1.1,2.2c0.2,0.8,0.3,1.5,0.3,2.2
				c0,0.5-0.1,0.9-0.2,1c-0.2,0.1-0.5,0.2-0.9,0.2h-10c-0.2,0-0.3,0.1-0.3,0.2c0,1.7,0.5,3.2,1.5,4.6c1,1.4,2.5,2.1,4.4,2.1
				c0.6,0,1.1-0.1,1.6-0.2s0.9-0.2,1.3-0.4c0.4-0.1,0.7-0.3,0.9-0.4s0.5-0.3,0.7-0.4l0.3-0.2c0.2,0,0.2,0.2,0.2,0.5
				c0,0.2-0.1,0.5-0.2,0.7c-0.5,0.7-1.3,1.4-2.3,2s-2.2,0.9-3.4,0.9c-2.2,0-4.1-0.8-5.7-2.5c-1.6-1.7-2.4-3.7-2.4-6.1
				c0-2.8,0.7-5,2.2-6.6C135.9,179.9,137.8,179.1,140.1,179.1z M139.7,180.6c-1.4,0-2.4,0.6-3.2,1.8c-0.7,1.2-1.1,2.2-1.1,2.9
				c0,0.2,0.1,0.3,0.2,0.3h7.7c0.1,0,0.2-0.1,0.2-0.4c0-0.8-0.4-1.8-1.1-2.9C141.8,181.1,140.9,180.6,139.7,180.6z"/>
			<path d="M160.6,179c1.9,0,3.2,0.7,3.9,2c0.7,1.3,1.1,3.5,1.1,6.4v3.6c0,1.5,0.1,2.7,0.3,3.5c0.1,0.2,0.4,0.4,1,0.5
				c0.6,0.2,1.1,0.3,1.4,0.3c0.1,0,0.1,0.2,0.2,0.5c0,0.3,0,0.5,0,0.7c-2.6-0.1-4.1-0.2-4.3-0.2c-0.1,0-1.4,0.1-4.2,0.2
				c-0.1-0.1-0.2-0.3-0.2-0.7s0.1-0.5,0.2-0.5c0.3,0,0.8-0.1,1.3-0.3c0.6-0.2,0.9-0.4,0.9-0.5c0.2-0.8,0.3-1.7,0.3-2.8v-4
				c0-2.5-0.3-4.1-1-5s-1.7-1.4-3.1-1.4c-0.8,0-1.7,0.3-2.4,0.9c-0.8,0.6-1.2,1.2-1.2,1.7v7c0,1.5,0.1,2.7,0.3,3.5
				c0.1,0.2,0.4,0.4,1,0.5c0.6,0.2,1.1,0.3,1.4,0.3c0.1,0,0.1,0.2,0.2,0.5c0,0.3,0,0.5,0,0.7c-2.6-0.1-4.1-0.2-4.3-0.2
				c-0.2,0-1.6,0.1-4.3,0.2c-0.1-0.1-0.2-0.3-0.2-0.7s0.1-0.5,0.2-0.5c0.3,0,0.8-0.1,1.4-0.3c0.6-0.2,1-0.4,1-0.5
				c0.2-0.8,0.3-1.7,0.3-2.8v-7.5c0-1-0.2-1.7-0.6-2.1c-0.3-0.3-0.6-0.5-1-0.7c-0.4-0.1-0.7-0.2-1-0.2s-0.4,0-0.4-0.1
				c0-0.6,0.1-1,0.2-1c2.8-0.4,4.6-0.8,5.5-1c0,0,0.1,0,0.2,0c0.1,0,0.2,0.1,0.2,0.3c0,0.2,0,0.4,0,0.5c-0.1,0.7-0.2,1.3-0.2,1.6
				c0,0.1,0,0.2,0.1,0.2c0,0,0.1,0,0.1-0.1c0.6-0.6,1.4-1.2,2.5-1.8S159.6,179,160.6,179z"/>
			<path d="M172.6,181.6h-2.3c-0.1,0-0.2-0.3-0.2-0.8c0-0.2,0-0.3,0-0.3c0.8-0.3,1.6-1,2.5-2.1c0.3-0.3,0.6-0.7,0.9-1.2
				c0.3-0.4,0.5-0.8,0.7-1.1c0.2-0.3,0.3-0.5,0.3-0.5c0.8,0,1.2,0.1,1.2,0.2v3.9c0.7,0,1.7,0,3.1,0c1.4,0,2.1,0,2.2,0
				c0.2,0,0.3,0.1,0.3,0.4c0,0.5-0.1,1-0.4,1.5h-5.3v9.7c0,1.1,0.3,1.9,0.8,2.5s1.3,1,2.1,1c0.8,0,1.6-0.3,2.5-0.8
				c0.1-0.1,0.2,0.1,0.4,0.3s0.2,0.4,0.2,0.5c-0.4,0.4-1,0.8-1.8,1.3c-0.8,0.4-1.7,0.6-2.5,0.6c-1.3,0-2.4-0.4-3.3-1.3
				s-1.3-2.1-1.3-3.7V181.6z"/>
			<path d="M191.2,179.1c1.2,0,2.3,0.2,3.2,0.7c0.9,0.5,1.6,1.1,2.1,1.8s0.8,1.5,1.1,2.2c0.2,0.8,0.3,1.5,0.3,2.2
				c0,0.5-0.1,0.9-0.2,1c-0.2,0.1-0.5,0.2-0.9,0.2h-10c-0.2,0-0.3,0.1-0.3,0.2c0,1.7,0.5,3.2,1.5,4.6c1,1.4,2.5,2.1,4.4,2.1
				c0.6,0,1.1-0.1,1.6-0.2s0.9-0.2,1.3-0.4c0.4-0.1,0.7-0.3,0.9-0.4s0.5-0.3,0.7-0.4l0.3-0.2c0.2,0,0.2,0.2,0.2,0.5
				c0,0.2-0.1,0.5-0.2,0.7c-0.5,0.7-1.3,1.4-2.3,2s-2.2,0.9-3.4,0.9c-2.2,0-4.1-0.8-5.7-2.5c-1.6-1.7-2.4-3.7-2.4-6.1
				c0-2.8,0.7-5,2.2-6.6C187.1,179.9,188.9,179.1,191.2,179.1z M190.8,180.6c-1.4,0-2.4,0.6-3.2,1.8c-0.7,1.2-1.1,2.2-1.1,2.9
				c0,0.2,0.1,0.3,0.2,0.3h7.7c0.1,0,0.2-0.1,0.2-0.4c0-0.8-0.4-1.8-1.1-2.9C192.9,181.1,192,180.6,190.8,180.6z"/>
		</g>
		<g>
			<g>
				<g>
					<path d="M141.7,156.4c-21.6,0-39.2-17.6-39.2-39.2c0-21.6,17.6-39.2,39.2-39.2c21.6,0,39.2,17.6,39.2,39.2
						C180.9,138.8,163.3,156.4,141.7,156.4z M141.7,79.6c-20.7,0-37.6,16.9-37.6,37.6c0,20.7,16.9,37.6,37.6,37.6
						c20.7,0,37.6-16.9,37.6-37.6C179.3,96.5,162.5,79.6,141.7,79.6z"/>
				</g>
			</g>
			<g>
				<path d="M141.9,131.5v-31.2c-0.1-0.1-0.1-0.1-0.2-0.2c-3.8,3.7-8.3,5.4-14.2,5.4c0,9.6-2,23.4,14.2,29c0.1,0,0.1,0,0.2-0.1
					c11.1-4.9,12.6-12.6,12.6-12.6C151.7,127.4,141.9,131.5,141.9,131.5z"/>
				<path d="M141.7,82.1c-19.4,0-35.1,15.7-35.1,35.1c0,19.4,15.7,35.1,35.1,35.1c19.4,0,35.1-15.7,35.1-35.1
					C176.8,97.8,161.1,82.1,141.7,82.1z M142.1,135.7l-0.4,0.1l-0.4-0.1c-15.4-5.3-15.1-18-15-27.2c0-1,0-1.9,0-2.9v-1.1h1.1
					c5.6,0,9.9-1.6,13.4-5.1l0.8-0.8l0.8,0.8c3.6,3.5,7.8,5.1,13.4,5.1h1.1v1.1c0,0.9,0,1.9,0,2.9
					C157.2,117.7,157.5,130.3,142.1,135.7z"/>
			</g>
		</g>
	</g>
</g>
</svg>
